<?xml version="1.0" standalone="no"?>
<!DOCTYPE svg PUBLIC "-//W3C//DTD SVG 20010904//EN"
 "http://www.w3.org/TR/2001/REC-SVG-20010904/DTD/svg10.dtd">
<svg version="1.0" xmlns="http://www.w3.org/2000/svg"
 width="189.000000pt" height="169.000000pt" viewBox="0 0 189.000000 169.000000"
 preserveAspectRatio="xMidYMid meet">

<g transform="translate(0.000000,169.000000) scale(0.100000,-0.100000)"
fill="#000000" stroke="none">
<path d="M922 1528 c3 -44 18 -58 25 -23 4 28 -5 65 -18 65 -6 0 -9 -18 -7
-42z"/>
<path d="M630 1400 c0 -14 43 -80 53 -80 11 0 9 9 -15 51 -21 37 -38 50 -38
29z"/>
<path d="M1211 1382 c-22 -31 -27 -52 -13 -52 12 0 48 68 40 75 -3 3 -15 -7
-27 -23z"/>
<path d="M926 1363 c-10 -10 -7 -93 4 -93 6 0 10 3 11 8 5 68 5 83 -1 87 -4 2
-10 2 -14 -2z"/>
<path d="M330 1325 c0 -13 84 -95 96 -95 22 0 17 12 -28 57 -37 37 -68 55 -68
38z"/>
<path d="M1482 1297 c-31 -31 -41 -57 -24 -57 13 0 72 64 72 78 0 20 -14 14
-48 -21z"/>
<path d="M710 1275 c0 -14 32 -65 40 -65 13 0 13 6 -5 40 -13 26 -35 41 -35
25z"/>
<path d="M1126 1249 c-20 -35 -12 -54 11 -24 28 39 35 55 21 55 -8 0 -22 -14
-32 -31z"/>
<path d="M1362 1177 c-54 -54 -61 -67 -39 -67 16 0 107 91 107 108 0 22 -15
13 -68 -41z"/>
<path d="M480 1179 c0 -14 49 -69 62 -69 16 0 8 27 -14 47 -33 29 -48 36 -48
22z"/>
<path d="M830 1145 c-7 -8 -27 -15 -44 -15 -45 0 -94 -34 -115 -80 -10 -22
-30 -49 -45 -61 -59 -47 -85 -136 -61 -212 15 -50 15 -54 -5 -92 -56 -110 6
-267 123 -309 18 -6 50 -24 73 -39 74 -50 138 -55 153 -13 4 11 7 198 7 414
-1 378 -2 394 -20 408 -25 18 -50 18 -66 -1z m44 -11 c14 -5 16 -40 16 -290 0
-169 -4 -284 -9 -284 -13 0 -42 43 -74 106 -32 63 -105 140 -120 125 -11 -11
-1 -45 11 -37 14 8 68 -55 97 -114 15 -30 43 -69 62 -87 l34 -32 -3 -98 -3
-98 -27 -3 c-29 -3 -88 22 -88 38 0 6 11 10 25 10 15 0 25 6 25 14 0 22 -19
29 -36 15 -19 -16 -77 -13 -113 6 -64 33 -111 112 -111 185 0 39 23 110 35
110 9 0 79 -53 83 -62 6 -14 30 -9 36 7 3 10 -1 18 -12 21 -68 21 -123 94
-124 166 -2 91 71 173 153 173 32 0 39 3 39 18 0 19 -10 19 -73 1 -17 -6 -18
-4 -3 25 31 60 118 82 136 35 24 -62 4 -135 -46 -171 -16 -12 -24 -25 -20 -31
14 -23 31 -11 64 41 34 55 42 118 22 172 -6 15 -8 31 -4 36 6 11 8 11 28 3z"/>
<path d="M966 1138 c-14 -19 -16 -76 -16 -413 0 -422 1 -427 52 -427 38 -1 93
20 113 42 10 11 39 26 65 35 57 19 121 83 140 139 15 47 9 129 -14 177 -15 32
-15 41 -2 91 10 38 12 68 6 93 -9 42 -54 113 -76 122 -8 3 -24 25 -36 49 -22
49 -70 84 -114 84 -16 0 -38 7 -48 15 -28 21 -52 19 -70 -7z m58 -6 c3 -5 -2
-28 -10 -52 -9 -25 -12 -56 -8 -74 9 -43 63 -136 79 -136 27 0 21 26 -13 56
-30 26 -36 37 -40 86 -2 31 1 64 7 77 17 32 63 28 106 -10 41 -36 48 -65 13
-53 -38 12 -63 10 -63 -6 0 -10 8 -14 23 -13 13 2 46 -7 73 -18 85 -37 122
-135 85 -222 -16 -38 -73 -94 -100 -99 -11 -1 -21 -9 -24 -15 -7 -22 25 -26
46 -6 10 10 31 28 46 41 l27 23 19 -43 c36 -80 21 -158 -45 -223 -51 -51 -113
-70 -156 -49 -28 14 -39 10 -39 -13 0 -7 11 -13 25 -13 36 0 31 -19 -10 -36
-42 -17 -85 -18 -86 -1 0 6 -2 52 -2 101 -2 86 -1 89 26 108 15 11 41 47 58
81 42 82 67 114 100 128 29 11 38 32 19 44 -17 11 -87 -65 -119 -129 -35 -70
-67 -114 -76 -105 -9 9 -10 552 -1 567 8 14 32 16 40 4z"/>
<path d="M1643 1047 c-25 -11 -31 -27 -10 -27 19 0 52 26 41 32 -5 3 -19 1
-31 -5z"/>
<path d="M185 1041 c7 -13 94 -45 101 -38 7 7 -70 47 -91 47 -9 0 -14 -4 -10
-9z"/>
<path d="M1468 966 c-26 -12 -48 -26 -48 -33 0 -12 84 18 103 37 19 18 -11 16
-55 -4z"/>
<path d="M340 972 c0 -13 99 -51 106 -41 3 5 -14 18 -38 29 -46 21 -68 25 -68
12z"/>
<path d="M118 742 c-55 -7 -28 -23 35 -20 34 2 62 7 62 13 0 10 -51 14 -97 7z"/>
<path d="M288 742 c-41 -8 -14 -22 42 -22 33 0 60 4 60 10 0 16 -53 22 -102
12z"/>
<path d="M1470 730 c0 -6 27 -10 61 -10 37 0 58 4 54 10 -3 6 -31 10 -61 10
-30 0 -54 -4 -54 -10z"/>
<path d="M1645 730 c-4 -6 18 -10 59 -10 37 0 66 4 66 10 0 6 -26 10 -59 10
-33 0 -63 -4 -66 -10z"/>
<path d="M391 529 c-18 -11 -31 -23 -27 -26 8 -8 86 27 86 39 0 14 -23 9 -59
-13z"/>
<path d="M1420 542 c0 -10 45 -32 63 -32 17 1 -32 40 -49 40 -8 0 -14 -4 -14
-8z"/>
<path d="M265 463 c-59 -30 -60 -31 -52 -40 11 -10 107 38 107 54 0 16 5 17
-55 -14z"/>
<path d="M1540 480 c0 -14 118 -71 125 -60 3 5 -21 23 -54 40 -67 33 -71 34
-71 20z"/>
<path d="M513 335 c-3 -9 -3 -19 1 -22 7 -7 36 16 36 28 0 15 -30 10 -37 -6z"/>
<path d="M1310 342 c0 -14 59 -66 67 -59 3 4 -6 21 -22 37 -28 30 -45 38 -45
22z"/>
<path d="M837 272 c-10 -2 -15 -8 -12 -13 8 -12 212 -12 220 1 3 6 0 11 -7 11
-30 3 -186 4 -201 1z"/>
<path d="M1407 253 c-8 -12 100 -119 110 -110 4 4 -18 33 -49 63 -30 31 -58
52 -61 47z"/>
<path d="M371 196 c-62 -63 -47 -82 17 -22 29 27 52 53 52 57 0 21 -29 6 -69
-35z"/>
<path d="M820 220 c0 -6 45 -10 115 -10 70 0 115 4 115 10 0 6 -45 10 -115 10
-70 0 -115 -4 -115 -10z"/>
<path d="M826 181 c-4 -5 -3 -12 1 -14 16 -9 213 -2 216 8 3 13 -209 19 -217
6z"/>
<path d="M820 130 c0 -5 7 -10 15 -10 9 0 18 -8 22 -17 13 -37 36 -53 75 -53
40 0 78 27 78 55 0 8 6 15 14 15 8 0 18 5 21 10 4 6 -35 10 -109 10 -71 0
-116 -4 -116 -10z m170 -16 c0 -3 -5 -14 -10 -25 -19 -35 -100 -21 -100 18 0
9 17 13 55 13 30 0 55 -3 55 -6z"/>
</g>
</svg>
